<?xml version="1.0" encoding="UTF-8"?>
<svg id="Layer_1" xmlns="http://www.w3.org/2000/svg" version="1.1" viewBox="0 0 650 500">
  <!-- Generator: Adobe Illustrator 30.2.1, SVG Export Plug-In . SVG Version: 2.1.1 Build 1)  -->
  <defs>
    <style>
      .st0 {
        fill: #288fc9;
      }

      .st1 {
        fill: #b4e3f5;
      }

      .st2 {
        fill: #fff;
      }

      .st3 {
        fill: #56b7e8;
      }

      .st4 {
        fill: #0a2640;
      }

      .st5 {
        fill: #0f364e;
      }
    </style>
  </defs>
  <g>
    <g>
      <path class="st2" d="M398,482.6c16.6-1.6,33.2-3.6,49.8-6.1s32.6-4.2,47.6-10.2c7.1-2.8,4-14.5-3.2-11.6-14.4,5.8-30.4,7.6-45.7,9.9-16.1,2.4-32.3,4.4-48.5,6s-7.7,12.7,0,12h0Z"/>
      <path class="st2" d="M504.4,464.6c10.8-2.2,21.6-5.4,31.2-10.9s8.2-6.1,12.4-9.1,4.7-2.7,7.3-3.7,5.7-3,8.7-4.1c7.2-2.6,4.1-14.2-3.2-11.6-5.2,1.9-10.4,4.5-15.3,7s-8.5,6.5-13,9.5c-9.4,6.2-20.2,9.2-31.1,11.5s-4.4,13.1,3.2,11.6h0Z"/>
      <path class="st2" d="M572.6,430.3c3.9-2.8,6.4-5.2,8.1-9.8s4.7-8.3,4.9-13.3l-7.6,5.8c1.2.5,2.1,1.5,3.2,2.1s3,.9,3.4,1.3l-1.5-5.8v.8c.4-.9.9-1.8,1.4-2.6-1.4,1.6-3.2,2.7-5,3.7-6.7,3.8-.7,14.2,6.1,10.4,4.4-2.5,11.4-6.9,8.8-12.9-1.3-3.1-3.8-3.6-6.5-4.9s-4.2-2.6-6.6-3.5c-3.9-1.5-7.4,2.3-7.6,5.8s-2.6,5.3-3.5,7.4-1.4,3.7-3.7,5.3c-6.3,4.4-.3,14.8,6.1,10.4h0Z"/>
      <path class="st2" d="M498.7,448.5c6.3-3.4,12.8-5.5,19.8-7.2,6.8-1.7,12.8-3.9,18.1-8.6,5.1-4.6,9.4-9.8,14.8-14s11.8-7.8,18.3-10.7c7-3.2.9-13.5-6.1-10.4-12.8,5.8-23.3,14.2-33.1,24.2-5.1,5.3-10.7,6.8-17.6,8.5-7.1,1.7-13.8,4.4-20.2,7.8-6.8,3.7-.7,14,6.1,10.4h0Z"/>
    </g>
    <g>
      <g>
        <g>
          <path class="st2" d="M78.2,414c-.6.9.4-.2.6-.4.3-.3.7-.6,1-.9.9-1,1.6-2.1,2.2-3.2s.9-1.3.5-.8.6-.6.7-.7,1.4-1.1.6-.5c.5-.3,1-.6,1.5-.9,2.8-1.5,3.9-5.6,2.2-8.2s-5.2-3.7-8.2-2.2-5.1,3.6-6.9,6.2-.6.9-.9,1.4-.9,1.1-.3.5c-1.2,1.1-2.3,2.1-3.3,3.5-1.8,2.6-.6,6.8,2.2,8.2s6.3.6,8.2-2.2h0Z"/>
          <path class="st2" d="M110,396.8c3.9-.3,7.7-.8,11.6-1.3s5-4.5,4.2-7.4-4.2-4.6-7.4-4.2-5.6.7-8.4.9-6.2,2.6-6,6,2.7,6.3,6,6h0Z"/>
          <path class="st2" d="M102.7,390.1c-5.1,1.5-10.2,2.9-15.3,4.2s-4.9,4.3-4.2,7.4c.1.7.4,1.4.8,2.1,1.2,1.6,1.3,1.6,0,0l.6-4.6c1.6-1.1,1.5-1.2-.3-.3l-1.2.6c-1.4,1-2.5,2.4-3.2,3.9-1.4,2.9-3.1,4.2-5.1,6.8s-2.7,6.2,0,8.5c6.8,5.7,13.9,9,21.7,12.8s6.5,4.9,9.7,7.4,7.1,5.2,10.3,8.2c5.6,5.3,14.1-3.2,8.5-8.5-3.2-3-6.7-5.5-10.2-8.2-3.3-2.5-6.2-5.5-9.6-7.8s-7-3.3-10.4-5-8-4.5-11.5-7.5v8.5c1.6-2,3.7-3.5,5.2-5.6s1.3-2,1.8-3.2c.9-2.4-1.1.2,1.5-1.1s3.5-3,3.9-5,.3-2.8-.1-4l-.6-1.4c-1.2-1.7-1.3-1.6,0,.2l-4.2,7.4c5.1-1.3,10.2-2.6,15.3-4.2,7.4-2.2,4.2-13.8-3.2-11.6h0Z"/>
          <path class="st2" d="M93.2,406.8c7.7,0,7.7-12,0-12s-7.7,12,0,12h0Z"/>
          <path class="st2" d="M108.4,402.5c4.5,7.4,11.4,7.9,18.8,10.9,3.9,1.6,7.7,3.3,11.7,4.8s7.7,3.7,11.5,3.8,7-3.9,5.8-7.6h0c-2.4-7.4-14-4.3-11.6,3h0c1.9-2.4,3.9-4.9,5.8-7.4-1.9,0-5.4-2.2-7.4-3-3.3-1.2-6.5-2.6-9.7-3.9s-11.9-2.4-14.4-6.6c-4-6.6-14.4-.5-10.4,6.1h0Z"/>
        </g>
        <path class="st2" d="M157.3,422.2c7.7,0,7.7-12,0-12s-7.7,12,0,12h0Z"/>
        <path class="st2" d="M121.1,451.8c4.1,3.3,7.8,5.4,13,6.5s10.9,3.6,16.4,5.2c11.2,3.1,22.8,4,33.9,7.5,7.4,2.4,10.5-9.2,3.2-11.6-10-3.2-20.3-4.5-30.5-6.7s-9.4-3-14.1-4.5-9.3-1.6-13.4-4.8c-6-4.7-14.5,3.7-8.5,8.5h0Z"/>
      </g>
      <path class="st2" d="M191.1,472.7c11.7,4.1,24.5,3.4,36.7,5.5s12.4,2.3,18.6,3.2c6.7.9,13.4,1,20,1.9s7.6-11.1,0-12-12.5-.8-18.7-1.7-12.4-2.2-18.6-3.2c-11.5-1.9-23.7-1.3-34.8-5.2-7.3-2.5-10.5,9-3.2,11.6h0Z"/>
      <path class="st2" d="M270.9,483.1c5.6,2.4,11.6,2.9,17.7,3.7s14.4,2.1,21.6,2.5,7.7-11.5,0-12-12.3-1.2-18.4-2.1-10.4-.6-14.8-2.5c-7-3-13.1,7.3-6.1,10.4h0Z"/>
    </g>
    <path class="st2" d="M561.7,435.7c7.7,0,7.7-12,0-12s-7.7,12,0,12h0Z"/>
  </g>
  <g>
    <path class="st4" d="M400.1,89.5l.6,1.1v53.3c70.4,3.7,59.3-17.2,59.9,45.7,363,9.3,73.4,373.1-203.1,260.9-38.7,11.3-81.1,9-117.5-8.4-5.9-1.9-7-10.4-1-12.3,14.8-2.8,28.1-9.1,39.4-19-65-42.4-112.2-119.6-98.2-199.2C25.8,205.2-2.1,125.4,38.5,90.4c6.1.2,5,14.6,31.6,24.2,19.5,7.1,34.5,12.8,45.1,33.6,27.6-30.3,68.7-7.6,100.1-27.8,22.6-4.3-5.8,52-13.6,59.5h52.4c1.1-69.3-12.8-46.1,69.5-50.2v-39.1c0-2.4,2.8-5.4,5.5-5.4h65.9c2.7,0,4.9,2.1,5.2,4.4ZM338.1,130.3c16.1,0,36.3,0,52.4.1v-35.1c-19.3,0-38,.2-57.3.2v34.6s4.8.1,4.8.1ZM53.9,186.5c20,20,39.4,9.2,38.4,23.1-15.7,77.8,31.8,152.5,95.5,193.8,8.7-9.4,31.5-30.9,40.1-35.8,6.1-3.5,36.1-17.5,40.5-8.9.6,1.2-1.3,4-3,4.4-46.5,9.2-66.4,57.4-109,74,65.6,24.7,139.5-1.8,183.7-53.8,19.6,11.1-52.7,57.6-64.8,61.1,118.7,35.7,269.5,1.2,333.2-110.7-29.1-32.1-94.7,61.4-167.4,12.5-2.6.2-5.4.2-8,.2-1.4-7.4,12.8-12.2,15.9-4.9,70.9,38.7,117.6-44.7,163.4-17.6,33.6-140.1-159.5-138.9-247-102.1-66.9,17.7-144.6,54.7-211.8,20.8-12.4-7.1-34.1-25.6-26.4-41.1,39.4,2.4,75.1-27.7,83.9-66-23.6,10.1-50.5.6-74.1,11.1-20.1,8.6-17.5,22.3-26.9,18.7,0-.3-.6-.9-.9-1-11.6-43-47-29.6-70.6-57.8-13.4,26-8.2,61.6,15.4,79.8ZM333.2,138.7v36c17.6.5,39,.6,56.8,0,.3,0,.8-.9.8-1.1l-.2-36.2c-17-.8-38.3-.4-55.4-.2l-2,1.5ZM268.9,175c16.6.5,37.8-.3,54.5,0v-35.2c-14.9.3-44.2-.1-59.1,0v34.7s4.7.5,4.7.5ZM400.1,155.6l.3,27.6c15.5-.2,34.7-.2,50.2-.1v-29.1c-10.3.3-38.9-.1-49.5-.2l-1,1.8ZM268.9,219.7c17,0,36.8-.3,54.5,0v-38.1c-19.3.5-39.9,0-59.1.8v35.8c0,1.5,3.3,2,4.6,1.4ZM356,212.8c11.3-3.1,22.6-6.8,34.6-9.5v-21.7c-19,.8-37.9.3-57.4.5l.2,37.5,22.7-6.8ZM157.8,232.3c11.4,6.4,23.1,10.5,35.9,11.6v-55.9c-16,14.7-34.3,22.6-55.1,24.8,5.1,9,11.3,14.6,19.2,19.5ZM405,198.8c70.2-10.9,49.9-11.5-4.6-9.9v11.2c0,0,4.6-1.3,4.6-1.3ZM208.2,221.3c8.4,0,23.3-.1,31.8-.1,1.5-.4,17,.8,14.2-1.5,0-5.2,0-13.7,0-19,.5-2.7,1.2-8.9-.3-11-9.2.5-36.2,0-45.9,0-1.1,0-4.2-.1-4.2,1l-.2,29.9c.9.8,3.4.7,4.5.7ZM281.1,227.4c-4.2-2-11.3-.6-16.6-.9v12.5c14.5-3.3,27.2-6.2,41.7-11.3-8.5-3.6-17-1.5-25.1-.3ZM218.9,227.6c-4.8-.5-10.6-1.6-15.1,1v16.4c17.5.5,33.5-1.2,50.6-4-.3-2.3,1.3-12.6-.6-13.4-10.7-.9-23.9-.8-35,0Z"/>
    <path class="st1" d="M138.9,379.8c13.1,10.6,24.8,21.4,39.5,31.2-11.3,9.8-24.6,16.1-39.4,19-5.9,1.9-4.9,10.4,1,12.3,36.4,17.4,78.8,19.8,117.5,8.4,104.3,37.6,227.5,18.9,313.3-51.7l7.4,2.8c-2.2,8.9-4.4,17.8-11.7,24.5,9.9-3.2,24.1-8.5,26-18.8,34.8,12.2,30.6,26.7-.7,38.5-28.7,61-470.6,61.6-506.2,3.7-25.9-8.5-63.3-20.7-18-41.7,4.2,11.5,23.7,17.3,34.1,22,24.9,41.7,165.1,47,210.2,57.3-.2-.5-.9-2.4-1.4-2.5l-19.5-2.5c7.8-2.4,14.7,2.1,22.2-2.5-38-5.3-178-15.4-197.2-44.2-7.3-11.6-26-7.9-32.4-25l23.4-11.3c13.3,13.3,37.2,16,54.4,20.3-1.9-2.3-4.5-3.9-7.1-4.5-13.1-3.1-25-8.4-36.2-15.8-5.7-3.8,1.7-11.2,3.2-15.3,5.8-1.8,11.7-3.2,17.4-4.2ZM396.1,479.8c33.2-1.8,150.3-18.4,164.8-48.1,0,0,5.4-5.1,5.4-5.1-4.7,1.3-15.5,3.9-20.3,5-15,27.9-84.3,31.6-113.5,38.4,0,0-34.7,5.8-34.7,5.8-1.2.2-2.7,4-1.7,4Z"/>
    <path class="st3" d="M496.9,129.8c-17.2,12.8-41.9-6.7-34.1-26.5,16.8-33,61.9,2.7,34.1,26.5ZM494.9,108.2c1-7.8-7.8-13.6-14.5-9.1.8,4.3,13.2,15,14.5,9.1Z"/>
    <path class="st3" d="M448.9,37.3c27.2-8.7,40.3,32.9,12.7,41-25.6,7.7-39.7-32-12.7-41ZM465.3,51.5c-1.6-6.8-9.7-10.9-14-4.4l14,4.4Z"/>
    <path class="st3" d="M383.9,16.1c1-12.3,19.7-10.4,20.3.6.9,14.8-22.1,14.6-20.3-.6Z"/>
    <path class="st3" d="M402.6,50.1c.6,1.2-3.8,5.9-7,5.2s-3.1-1.8-4.7-3.1l-6.7-2.1c-6.6-6.3,3.8-12.4,6-2.6,4.1-7.6,10.1-3.9,12.4,2.6Z"/>
    <path class="st3" d="M443.5,122.1c-2.7,5.3-10.9,3-13-1.9-1.7-12,17.4-9.4,13,1.9Z"/>
    <path class="st1" d="M108,385.1c4,5.1-25.5,12.8-27.8,10.8,8.4-5.5,17.8-7.8,27.8-10.8Z"/>
    <path class="st3" d="M503.7,155.3c-5.7,2.7-10.2-6-4.4-9.1,5.9-2.1,9,6.3,4.4,9.1Z"/>
    <path class="st3" d="M425.7,81.2c.7,1.1,1.4,3.1,1.5,4.1.2,1.7-7.5,3.4-9.4.1-2.1-5,4.5-9.9,7.9-4.2Z"/>
    <path class="st3" d="M420,89.7l8.4-1.6c2.9,10.7-11.5,10.5-8.4,1.6Z"/>
    <path class="st3" d="M438.9,96.5c-5.5-5.7,3.2-8.8,6.3-4.7,1.5,4.8-2.4,7.5-6.3,4.7Z"/>
    <path class="st3" d="M406.9,45.2c-4.3-3.3-.2-7.5,3.7-5.4,2.7,3.2,1.5,7.3-3.7,5.4Z"/>
    <path class="st0" d="M400.7,90.6l-.6-1.1.6,1.1Z"/>
    <path class="st3" d="M39.8,108.9c1.5,14.2,17.9,21.9,30.3,26.4,30.4,11.1,32.1,27.1,39,29.2s.9.6.9,1c2,8.5,12.6-5,23.1-9.7,29.4-15,47.2,1.5,69.5-17,2.1-1.4,4.8-2.5,8.3-3.1-6.2,26.1-23.6,47.9-47.1,58.3,5.8-13.2,26.9-19.3,29.8-34.1-13.4,11-25.5,20.2-40.9,24.6-15.6,2.6-16.3,6.7-30.8,10.8,2.5,2.7,4.1,4.3,5.1,6.4-3.1,4-2.2,8.3-.2,13.2,47.9,115.5,234.5,2.8,322.1-.5,65.7-11.8,167.2,20.3,147.8,103.6-51.3,2.8-84.4,55.9-147.7,23.7-3.1-7.3-17.4-2.5-15.9,4.9-39.5-1-59,23.7-89,43,0-2.9-1.2-5.5-4-6.2.3-2.1.4-5.3-1.9-6.1-20.2,19.1-47,40.7-73.2,48.5-.3-1.8-1.8-1.3-3.1-1.1-20.2,3-48.3,10.3-68.8,8.9,34.2-13.6,52.4-51,89.2-60.7,0,0,4.8.8,4.8.8,7.1-3.6,33.8-15.4,39.8-19.8,16.2-3,17.2-5.7,31.2-10.6-101.8,14.2-271.7-13.4-254.5-149.4-10.5-.5-9-5.6-21-9.5-23.8-7.8-36.7-32-43.7-55.1-1,10.8,1,21,4,31.2,5.5,18.7,15.5,21.1,11.1,26.1-23.6-18.2-28.8-53.9-15.4-79.8.6,1.1,1,1.9,1.3,2.2ZM195.8,158.6c0-1.1-1.7-1.1-1.7,0,0,1.1,1.7,1.1,1.7,0ZM578.5,259.2c-4.3-15.9-45.1-42.7-59.1-33.3,23.1,6.3,42.1,17.1,59.1,33.3ZM432.1,268.1c-6.4-12.2-24.5-4.3-30.1,3.2,17-3.8,12-4.1,30.1-3.2ZM416.8,328.4c36.4,5.6,36.7-50.2-.8-45.6-18.6-10.3-39.1,25.5-21.1,41.8-4.7,2.4-8.2,3.7-10.4,8.5,4.4.4,30.8,2.8,31.5-.9l.7-3.7Z"/>
    <path class="st2" d="M583.9,368.6c-21.3,11.9-39,31-62.4,40.1,6.1-6.7,28.4-21.7,28.4-31.5-31.4,31-73.3,52.4-117.4,58.4,25.1-12.3,53.9-24,68.5-49.4-45.2,35.5-101.7,48-158,47.3,39.3-5.5,79-16.6,106.8-45.9-35.3,16.9-75.4,36.2-116.3,35.1,5.2-5.4,8.8-9.7,13.4-15.5,19.2-2.5,54.3-12,67.1-27.6-17.6,6.9-43.9,20-63.5,18.4,2-8.4,6.3-10.8,7.6-17.4,22.3-22,51.3-36.3,82.9-34.4,73.2,48.9,137.9-44.6,167.4-12.5-4.8,14.3-15.5,24.2-24.5,34.9ZM451.8,386.6c0-1.1-1.7-1.1-1.7,0,0,1.1,1.7,1.1,1.7,0Z"/>
    <path class="st0" d="M264.9,425.7c-18.8,7.7-47.8,14.5-67,14.8-3.8.4-17.4-1.3-20.1,2.4-7.1-1.3-14.4-2.5-21.5-5.8,42.5-16.6,62.5-64.9,109-74,1.7-.4,3.7-3.2,3-4.4-4.5-8.5-34.4,5.5-40.5,8.9-73.4-12.6-159.2-73.7-135.6-158,1-14-18.3-3-38.4-23.1,4.3-5-5.6-7.4-11.1-26.1-3-10.2-5.1-20.4-4-31.2,7,23.1,19.9,47.3,43.7,55.1s10.5,9,21,9.5c-17.3,106,105.7,158.3,194.4,151.6,0,0,60.1-2.3,60.1-2.3-14,4.8-15,7.6-31.2,10.6-5.9,4.3-32.9,16.3-39.8,19.8-39.3,1.9-58.6,47.5-94,59.9,20.4,1.4,48.7-5.9,68.8-8.9,1.3-.2,2.9-.7,3.1,1.1Z"/>
    <path class="st1" d="M596.8,317.9c19.3-83.3-82.1-115.3-147.8-103.6-87.5,3.3-274.3,116.1-322.1.5,47.7,79.3,169.2,25.6,238.4,7.1,87.5-36.8,280.7-38,247,102.1-5.3-2.9-10.4-5.8-15.6-6.1Z"/>
    <path class="st1" d="M151,337.8c-1.4,14.9,33.3,33.3,45.6,38.4l16.2-11.5c4.6,1.5,10.7.4,15.1,3-8.6,4.9-31.4,26.5-40.1,35.8-45.7-30.6-82-73.5-94-127.8,14.1,24.7,34.1,46,57.3,62.2ZM192.4,380.7l-23.7-11.3,12.4,10.2c2.9,5.3,7.4,5.2,11.4,1.1Z"/>
    <path class="st1" d="M340.1,383.3c-32,37.2-87,67.8-137.1,62.5,1.7-.1,4.1-1.1,7.6-1.9l-4.6-3.9c35.7-3.9,75.9-16.3,105.2-39.4,0,0,27-23.4,27-23.4,2.4.9,2.2,4,1.9,6.1Z"/>
    <path class="st3" d="M435,154.1l-.8,29h-17.1c-.4-7.8,2.7-21-2.3-27.9l-1,28h-13.4c0,.1-.3-27.5-.3-27.5l1-1.8,33.9.3Z"/>
    <path class="st3" d="M349.7,136.9c.2,2.1,1.2,2.1,1.4,0l21.7.2c-1.2,6,0,31.4,0,38h-19.9c-.2-3.1.7-28.7,1-30.9,0,0-3.2-3.7-3.2-3.7l-2.1,3.8-10.3-.5c-.7-4.7,0-7-5.2-5.2l2-1.5,14.6-.3Z"/>
    <path class="st0" d="M163.9,193.9c-11.5,5.1-23.5,9.6-36.8,7.7-1-2.2-2.6-3.7-5.1-6.4,14.4-4.1,15.2-8.2,30.8-10.8,15.4-4.4,27.6-13.6,40.9-24.6-2.8,14.8-24,20.9-29.8,34.1Z"/>
    <path class="st0" d="M269,182.5c.2,1.7.7,5,.9,6.6h9.7c.8.1,1.7-3,1.5-3.3l1-4.1h2.9c0,.1.5,7.6.5,7.6l18.4-.6c1.1-2.2.5-5.8-.9-7.1h5.9s0,37.7,0,37.7h-4.6s.3-27.2.3-27.2l-19.1-.5-.4,27.8c-1.6,0-2.9,0-3.8,0v-27.1c-4.7-.3-8.6-.3-12.4.4v26.8c-1.3.6-4.7,0-4.7-1.4v-35.8c1.9-.3,3.7-.2,4.8.1Z"/>
    <path class="st0" d="M268.8,139.9l.5,5.8c16.6.5,6.9-2,16.3-.8s11.7.7,18.4.7v-5.8c0,0,3.7.2,3.7.2l.9,5.9c4.3,0,6.9-.6,11.2.9l-11.4,1.4.2,26.8h-4s-.4-26.7-.4-26.7l-18.7.4-.6,26.3c-1.5,0-3.2.3-4,.4l.3-27.2h-12.2c0,.1-.1,26.8-.1,26.8l-4.6-.5v-34.7s4.6,0,4.6,0Z"/>
    <path class="st0" d="M222.7,227.2l.2,6.1,16.5.4.5-6.1,3.9-.3.4,6.1,10.5.5-.2,7.3c-17.1,2.8-33.1,4.5-50.7,4v-16.4c5.4.3,4.6-1,5.4,4.5l9.6.5.2-6.1,3.8-.4Z"/>
    <path class="st1" d="M109.1,164.5c-7-2.1-8.6-18-39-29.2-12.3-4.5-28.8-12.3-30.3-26.4,25.6,25.2,57.4,13.8,69.3,55.6Z"/>
    <path class="st1" d="M202.7,138.7c-22.3,18.5-40,2-69.5,17-10.6,4.8-21.1,18.2-23.1,9.7,4.2,1.6,6-.3,8.5-3.7,22.3-30.2,58.8-16.4,84.1-23.1Z"/>
    <path class="st3" d="M390.7,173.6l-.8,1.1c-3.3.2-10.6.2-13.9.3l.6-28,11.4-1.3c-4.5-1.3-6.7-1.2-11.3-1.6v-7.1c4.5-.2,9-.3,13.8.3l.2,36.2Z"/>
    <path class="st0" d="M337.8,182.1l.3,7.2h11.1c3-5.1,2.6-1.6,5.4,0,0,0,17.3.3,17.3.3l.3-7.6c1.7,0,3,0,4,0l-.2,24.7-3.8,1v-16.3c.1,0-18.9.4-18.9.4l.3,20.9,2.4.2-22.7,6.8-.2-37.5h4.6ZM349.5,210.9l-.2-19.6-11.1,1,.5,19.9,10.8-1.3Z"/>
    <path class="st3" d="M376.1,130.3v-34.7c3.5-.3,10.3-.4,14.4-.2v35.1c0,0-14.4-.1-14.4-.1Z"/>
    <polygon class="st3" points="308.9 219.5 308.9 181.8 323.3 181.6 323.4 219.7 308.9 219.5"/>
    <polygon class="st3" points="372.1 130.2 353.1 130.3 353.4 102.6 372.4 103.3 372.1 130.2"/>
    <path class="st0" d="M338,95.6v5.4c0,0,11.3,0,11.3,0l1.4-4.8c1.6,3.1,2.4,5.5,4.9,5.5l16.1.3c.7-1.8,1.3-4.5,1.3-6.1,1.1,0,2.4,0,2.9,0v34.7c0,0-3.9,0-3.9,0l.2-26.9-19-.7-.3,27.7h-4s.3-26.6.3-26.6l-11.7.2.4,26.4h-4.8c0-.1,0-34.7,0-34.7h4.7Z"/>
    <path class="st3" d="M304.3,219.5c-7.1,0-13.2.3-19.3,0l.4-27.8,19.1.5-.3,27.2Z"/>
    <polygon class="st3" points="304.7 175 284.9 175 285.6 148.7 304.3 148.3 304.7 175"/>
    <path class="st3" d="M308.7,175l-.2-26.8,11.4-1.4c-4.3-1.5-6.9-.9-11.2-.9l-.9-5.9,15.5-.2v35.2c.1,0-14.5,0-14.5,0Z"/>
    <path class="st0" d="M208.1,189.7l.5,5.5c3.3.2,9.4,2.5,10.9-2.1,4.5,3.9,14.5,2.7,20.3,2.5l.2-5.8c.8,0,2.3.3,3.1.2l.6,5.6,8.4.5-8.5.9v24.1c.1,0-3.6,0-3.6,0l-.3-24.7c-6.1.8-10.2.9-16.4.7l-.4,24h-3.7s-.1-24.2-.1-24.2l-10.6.8-.2,23.5c-1.1,0-3.6,0-4.5-.7l.2-29.9c0-1.1,3.2-1,4.2-1Z"/>
    <path class="st3" d="M240,221.2h-17.1s.4-24,.4-24c6.1.3,10.3.1,16.4-.7l.3,24.7Z"/>
    <path class="st3" d="M437.8,183.1c.2-9.7.4-19.4-.7-28.9l13.4-.2v29.1c0,0-12.7,0-12.7,0Z"/>
    <path class="st0" d="M353,175.1c-1,0-3.3-.2-3.8-.3l.2-27.5-11.3.2-.3,27.4-4.6-.2v-36c5-1.9,4.4.5,5.1,5.2l10.3.5,2.1-3.8,3.2,3.7c-.3,2-1.2,27.9-1,30.9Z"/>
    <path class="st3" d="M376,206.7l.2-24.7,14.3-.4v21.7c-5.1,1.5-9.8,2.7-14.5,3.4Z"/>
    <path class="st3" d="M372.2,207.7c-6.3,2.5-12.2,5.2-18.5,5l-.3-20.9,19-.4v16.3Z"/>
    <polygon class="st3" points="280.9 175.4 268.9 175 269 148.4 281.2 148.3 280.9 175.4"/>
    <path class="st3" d="M281.2,219.6c-4.8.2-8.6.2-12.4.1v-26.8c3.8-.7,7.6-.7,12.5-.4v27.1Z"/>
    <path class="st3" d="M253.9,189.6c0,3.1.9,6.1.7,9-1.3,6.1.3,15.9-.7,22.1-2.5.3-7.4.3-10.2.3v-24.1c-.1,0,8.4-.9,8.4-.9l-8.4-.5-.6-5.6,10.8-.4Z"/>
    <path class="st3" d="M349.2,174.8c-4,.2-8.2.3-11.3.1l.3-27.4,11.3-.2-.2,27.5Z"/>
    <polygon class="st3" points="349.1 130.3 338.1 130.3 337.7 103.9 349.4 103.7 349.1 130.3"/>
    <polygon class="st3" points="219.1 221.2 208.2 221.3 208.4 197.9 219 197.1 219.1 221.2"/>
    <path class="st3" d="M372.2,182.1l-.3,7.6-17.3-.3c-2.8-1.7-2.4-5.2-5.4,0h-11.1c0-.1-.3-7.3-.3-7.3,12.1,0,23.3-.3,34.4,0Z"/>
    <path class="st0" d="M268.8,226.5c0,1.6.5,4.6,1.3,5.6l11,.4v-5.1c8.1-1.2,16.5-3.3,25,.3-14.5,5.1-27.2,8-41.7,11.3v-12.5s4.2,0,4.2,0Z"/>
    <path class="st3" d="M304.1,139.9v5.8c-6.8,0-12.5,0-18.5-.7-9.4-1.2.3,1.3-16.3.8l-.5-5.8h35.3Z"/>
    <path class="st3" d="M373.1,95.7c0,1.6-.6,4.3-1.3,6.1l-16.1-.3c-2.4,0-3.2-2.4-4.9-5.5l-1.4,4.8h-11.4c0,0,0-5.3,0-5.3,11.7.2,23.5-.8,35.1,0Z"/>
    <path class="st3" d="M240,189.8l-.2,5.8c-5.8.2-15.8,1.4-20.3-2.5-1.6,4.6-7.7,2.3-10.9,2.1l-.5-5.5h31.9Z"/>
    <path class="st3" d="M417.9,196.6v-8.1c1.2.7,34.2-2.3,33,1.6.9,1.3-32.4,6.1-33,6.5Z"/>
    <path class="st0" d="M376.7,137.1v7.1c4.6.4,6.9.3,11.3,1.6l-11.4,1.3-.6,28h-3.1c-.1-6.6-1.3-31.8,0-37.9,1.8,0,2.9,0,3.9,0Z"/>
    <path class="st3" d="M302.9,181.8c1.4,1.3,2,4.9.9,7.1l-18.4.6-.5-7.5,18-.2Z"/>
    <path class="st3" d="M205.9,440l4.6,3.9c-10.6,4-21.8.7-32.6-1,2.6-3.6,16.3-2,20.1-2.4,2.4.9,4.6,2.6,6.2-.6.5,0,1.4.1,1.8.1Z"/>
    <path class="st3" d="M239.9,227.5l-.5,6.1-16.5-.4-.2-6.1c5.7-.2,11.6-.1,17.2.4Z"/>
    <path class="st0" d="M437.1,154.2c1.1,9.5.9,19.3.7,28.9h-3.6c0,0,.8-29,.8-29h2.2Z"/>
    <path class="st3" d="M413.8,188.6v8.7c-3.5.7-6.2,1.1-8.8,1.4l-2-9.9,10.8-.3Z"/>
    <path class="st0" d="M417.1,183.1h-3.2s1-27.9,1-27.9c5,6.9,1.9,20.1,2.3,27.9Z"/>
    <path class="st3" d="M281.1,227.4v5.1s-11-.4-11-.4c-.9-.9-1.4-3.9-1.3-5.6,4.8,0,9-.7,12.3.9Z"/>
    <path class="st3" d="M253.9,227.7c.3,1.4,1.1,4.8.8,6.1l-10.5-.5-.4-6.1c3.5-.3,7.8-.1,10.1.5Z"/>
    <path class="st3" d="M218.9,227.6l-.2,6.1-9.6-.5c-.8-5.5,0-4.2-5.3-4.5,4.4-2.6,10.2-1.5,15.1-1Z"/>
    <polygon class="st0" points="403 188.8 405 198.8 400.4 200.1 400.4 188.9 403 188.8"/>
    <path class="st3" d="M282,181.8l-1,4.1h-11.6s-.4-3.3-.4-3.3c4.9-.6,9-.9,13-.7Z"/>
    <polygon class="st0" points="417.7 188.5 417.9 196.6 413.9 197.3 413.8 188.6 417.7 188.5"/>
    <path class="st0" d="M254.7,195.6c-.4-1.7-.6-4-.7-6,1.2,1,.7,4.1.7,6Z"/>
    <path class="st0" d="M254.7,231.7l-.9-4.1c1,.3,1.1,3.1.9,4.1Z"/>
    <path class="st0" d="M254.2,214.6v-4c0,1.2.2,2.8,0,4Z"/>
    <path class="st0" d="M400.1,155.6l1-1.8-1,1.8Z"/>
    <path class="st0" d="M254.2,200.6c0-.5.3-1.8.4-2,0,.5-.3,1.8-.4,2Z"/>
    <path class="st0" d="M349.7,136.9h1.4c-.3,2.1-1.2,2.1-1.4,0Z"/>
    <path class="st0" d="M389.9,174.8l.8-1.1c0,.3-.5,1.1-.8,1.1Z"/>
    <path class="st0" d="M253.9,220.8l.3-1.1c1,.5.3.9-.3,1.1Z"/>
    <path class="st2" d="M494.9,108.2c-1.3,5.9-13.6-4.8-14.5-9.1,6.7-4.4,15.5,1.3,14.5,9.1Z"/>
    <path class="st2" d="M465.3,51.5l-14-4.4c4.3-6.5,12.4-2.4,14,4.4Z"/>
    <path class="st4" d="M416.8,328.4c-23.8-5.4-23.7-39.2-.8-45.6,37.5-4.6,37.1,51.2.8,45.6ZM437,303.1c1.6-9.4-12.2-16.9-16.2-7-3.3,9.8,12.2,18.7,16.2,7ZM416.7,322.5c6.2,1.9,9.6-5.3,5.8-8.7-6.8-4.2-16.5,5.7-5.8,8.7Z"/>
    <path class="st0" d="M416,282.9c-23,6.3-23.1,40.1.8,45.6l-.7,3.7c-.8,3.8-27.1,1.4-31.5.9,2.2-4.8,5.8-6,10.4-8.5-18.1-16.3,2.5-52.1,21.1-41.8Z"/>
    <path class="st2" d="M578.5,259.2c-17-16.1-36-27-59.1-33.3,13.6-9.6,55.1,17.6,59.1,33.3Z"/>
    <path class="st5" d="M432.1,268.1c-18-.9-13.1-.7-30.1,3.2,5.6-7.4,23.7-15.3,30.1-3.2Z"/>
    <path class="st1" d="M583.9,368.6c-75.8,84-201.5,107.9-308.7,75.9,26.9-13.1,53.3-29.6,68.9-54.9l14-8.9c-1.4,6.6-5.6,9-7.6,17.4,19.6,1.6,45.9-11.5,63.5-18.4-12.8,15.6-47.8,25.1-67.1,27.6-4.6,5.8-8.2,10.1-13.4,15.5,41,1,80.9-18.3,116.3-35.1-27.8,29.2-67.5,40.3-106.8,45.9,56.4.7,112.8-11.8,158-47.3-14.6,25.4-43.4,37.2-68.5,49.4,44.1-6,86-27.4,117.4-58.4,0,9.8-22.4,24.9-28.4,31.5,23.4-9.2,41.1-28.2,62.4-40.1ZM431.6,436.1c0-.8-1.3-.8-1.3,0,0,.8,1.3.8,1.3,0Z"/>
    <path class="st0" d="M195.8,158.6c0,1.1-1.7,1.1-1.7,0,0-1.1,1.7-1.1,1.7,0Z"/>
    <path class="st1" d="M451.8,386.6c0,1.1-1.7,1.1-1.7,0,0-1.1,1.7-1.1,1.7,0Z"/>
    <path class="st2" d="M212.8,364.7l-16.2,11.5c-12.2-5.1-47-23.5-45.6-38.4,18.7,11.6,40.8,20.7,61.8,26.9Z"/>
    <path class="st1" d="M204.1,439.9c-1.6,3.2-3.8,1.5-6.2.6l6.2-.6Z"/>
    <path class="st2" d="M431.6,436.1c0,.8-1.3.8-1.3,0,0-.8,1.3-.8,1.3,0Z"/>
    <path class="st2" d="M192.4,380.7c-4,4.1-8.4,4.2-11.4-1.1,0,0-12.4-10.2-12.4-10.2l23.7,11.3Z"/>
    <path class="st1" d="M281,185.9c.2.3-.6,3.4-1.5,3.4h-9.7c0-.1-.4-3.4-.4-3.4h11.6Z"/>
    <polygon class="st3" points="349.5 210.9 338.6 212.3 338.1 192.3 349.2 191.3 349.5 210.9"/>
    <path class="st2" d="M437,303.1c-4,11.7-19.4,2.8-16.2-7,4-9.9,17.8-2.4,16.2,7Z"/>
    <path class="st2" d="M416.7,322.5c-10.7-3-1.1-13,5.8-8.7,3.8,3.4.5,10.6-5.8,8.7Z"/>
  </g>
</svg>