<?xml version="1.0" encoding="UTF-8"?>
<svg id="Layer_2" data-name="Layer 2" xmlns="http://www.w3.org/2000/svg" viewBox="0 0 739.91 666.71">
  <defs>
    <style>
      .cls-1 {
        fill: #10364e;
      }

      .cls-2 {
        fill: #0a2640;
      }

      .cls-3 {
        fill: #3b82f6;
      }

      .cls-4 {
        fill: #2563eb;
      }

      .cls-5 {
        fill: #50b8ed;
      }

      .cls-6 {
        fill: #b2e4f6;
      }

      .cls-7 {
        fill: #fdfdfd;
      }

      .cls-8 {
        fill: #258fca;
      }
    </style>
  </defs>
  <g id="Layer_1-2" data-name="Layer 1">
    <g>
      <path class="cls-4" d="M124.59,619.59c-19.9,46.35-75.62,49.76-118.32,41.24-2.39-.48-6.57-3.29-6.25-5.88l16.07-130.77c72.91-27.89,143.19,11.04,108.5,95.41ZM88.05,612.54c15.24-36.32,8.23-73.57-38.42-65.99l-10.71,87.56c19.96,2.52,39.82-1.49,49.12-21.57Z"/>
      <path class="cls-3" d="M559.87,607.81c-2.28-.03-3.97-1.48-4.54-3.86l3.65-24.13,57.82.34-9.11,69.72c-156.97,82.2-164.7-165.39-10.77-130.84,29.83,9.55,19.97,17.74,4.07,36.28-77.96-53.13-116.08,103.79-25.63,76.91l3.1-24.13-18.6-.28Z"/>
      <path class="cls-4" d="M467.16,655.97c-1.54,9.19-35.34,10.46-39.27,1.4-6.24-14.39-9.97-28.21-14.67-44.12l-15.56,13.69-3.97,32.8c-3.84,4.53-24.58,3.09-31.14,2.74-2-.11-3.84-2.48-3.59-4.5,3.84-30.49,14.21-113.62,17.86-142.96,6.35-3.01,35.69-7.62,34.25,4.02l-8.71,70.54,35.04-33.1c12.08-1.1,24.19-1.11,37.36.87l-34.99,35.84c8.51,19.76,18.24,43.47,27.38,62.78Z"/>
      <path class="cls-3" d="M716.98,651.51c-83.91,56.98-130.09-64.5-45.7-95.26,65.48-19.84,91.15,55.15,45.7,95.26ZM676.18,638.5c25.74,6.08,40.89-53.76,13.43-58.01-26.4-4.48-39.39,53.07-13.43,58.01Z"/>
      <path class="cls-4" d="M224.35,655.7c-47.1,26.99-99.2-3.9-80.74-59.45,10.22-34.96,45.2-48.87,78.49-40.13,44.05,11.99,36.38,79.27,2.26,99.58ZM190.18,638.42c24.95,3.01,36.16-44.23,18.13-56.5-29.76-13.99-47.76,51.14-18.13,56.5Z"/>
      <path class="cls-4" d="M311.66,637.95c11.13,1.42,20.16-2.86,29.81-8.87,3.1,6.61,5.7,13,7.88,20.11-.21,2.52-4.01,6.05-6.55,7.44-75.7,40.7-115.83-58.46-48.49-96.33,31.82-15.07,66.38-.59,62.57,8.39-3.05,7.17-8.27,12.91-13.93,18.29-40.88-29.23-64.41,44.94-31.29,50.98Z"/>
    </g>
    <g>
      <g>
        <g>
          <path class="cls-7" d="M446.19,474.92c16.63-1.61,33.22-3.64,49.75-6.1s32.59-4.18,47.63-10.22c7.08-2.84,3.99-14.45-3.19-11.57-14.44,5.8-30.38,7.62-45.67,9.93-16.12,2.43-32.3,4.4-48.52,5.97-7.62.74-7.69,12.75,0,12h0Z"/>
          <path class="cls-7" d="M552.57,456.9c10.79-2.22,21.59-5.35,31.17-10.95,4.49-2.62,8.21-6.1,12.39-9.12,2.25-1.63,4.73-2.65,7.26-3.74,2.92-1.26,5.66-3.02,8.65-4.09,7.22-2.58,4.11-14.18-3.19-11.57-5.18,1.85-10.41,4.47-15.32,6.95-4.84,2.45-8.55,6.5-13.04,9.47-9.37,6.19-20.22,9.24-31.11,11.48-7.56,1.55-4.36,13.12,3.19,11.57h0Z"/>
          <path class="cls-7" d="M620.77,422.63c3.93-2.77,6.4-5.22,8.14-9.75s4.67-8.29,4.93-13.28l-7.6,5.79c1.2.46,2.1,1.5,3.19,2.13.85.49,2.97.87,3.4,1.33l-1.54-5.84-.12.75,1.54-2.65c-1.38,1.62-3.19,2.7-5.03,3.74-6.73,3.79-.69,14.16,6.06,10.36,4.4-2.47,11.37-6.87,8.82-12.92-1.29-3.06-3.81-3.65-6.49-4.94-2.29-1.1-4.2-2.59-6.64-3.54-3.85-1.49-7.41,2.26-7.6,5.79-.11,2.18-2.62,5.33-3.46,7.39-1.02,2.5-1.4,3.69-3.66,5.28-6.26,4.42-.27,14.83,6.06,10.36h0Z"/>
          <path class="cls-7" d="M546.83,440.89c6.32-3.43,12.81-5.51,19.77-7.21,6.78-1.66,12.85-3.9,18.1-8.65,5.07-4.58,9.36-9.8,14.82-13.98s11.8-7.82,18.25-10.73c7.03-3.17.94-13.51-6.06-10.36-12.84,5.78-23.33,14.18-33.08,24.21-5.13,5.28-10.66,6.8-17.62,8.51s-13.83,4.37-20.24,7.85c-6.79,3.68-.74,14.05,6.06,10.36h0Z"/>
        </g>
        <g>
          <g>
            <g>
              <path class="cls-7" d="M126.35,406.33c-.62.92.38-.21.55-.36.35-.3.7-.59,1.02-.92.93-.97,1.55-2.06,2.22-3.19.07-.12.89-1.31.5-.81s.57-.59.67-.69c.08-.08,1.41-1.11.56-.52.48-.32.97-.61,1.48-.88,2.77-1.48,3.86-5.56,2.15-8.21-1.82-2.82-5.24-3.74-8.21-2.15-2.79,1.49-5.1,3.65-6.89,6.24-.32.46-.59.94-.88,1.42-.23.4-.95,1.13-.28.5-1.23,1.14-2.29,2.08-3.26,3.51-1.77,2.6-.58,6.77,2.15,8.21,3.04,1.61,6.32.63,8.21-2.15h0Z"/>
              <path class="cls-7" d="M158.15,389.17c3.87-.32,7.72-.79,11.56-1.33,3.21-.45,4.97-4.55,4.19-7.38-.95-3.46-4.16-4.64-7.38-4.19-2.56.36-5.58.67-8.37.9-3.12.26-6.15,2.57-6,6,.14,3.03,2.65,6.28,6,6h0Z"/>
              <path class="cls-7" d="M150.87,382.45c-5.07,1.51-10.17,2.9-15.31,4.16-3.24.8-4.9,4.29-4.19,7.38.13.73.38,1.42.75,2.08,1.24,1.62,1.25,1.62.03.01l.6-4.62c1.59-1.12,1.49-1.23-.31-.31l-1.21.61c-1.45.99-2.46,2.35-3.24,3.89-1.45,2.86-3.15,4.25-5.11,6.79-1.84,2.38-2.73,6.21,0,8.49,6.77,5.65,13.94,8.98,21.75,12.84,3.69,1.82,6.51,4.88,9.72,7.4,3.48,2.72,7.1,5.2,10.31,8.24,5.61,5.3,14.11-3.17,8.49-8.49-3.19-3.01-6.74-5.51-10.21-8.18-3.27-2.52-6.19-5.52-9.62-7.82-3.22-2.16-6.99-3.28-10.45-5-4.12-2.04-7.97-4.54-11.5-7.48v8.49c1.58-2.04,3.7-3.53,5.22-5.61.74-1.01,1.3-2.05,1.76-3.22.94-2.38-1.14.19,1.46-1.06,1.79-.87,3.46-3.03,3.93-4.95.29-1.18.26-2.82-.13-4.01l-.6-1.43c-1.24-1.67-1.25-1.62-.05.17l-4.19,7.38c5.14-1.26,10.24-2.65,15.31-4.16,7.38-2.2,4.24-13.79-3.19-11.57h0Z"/>
              <path class="cls-7" d="M141.33,399.13c7.72,0,7.73-12,0-12s-7.73,12,0,12h0Z"/>
              <path class="cls-7" d="M156.52,394.89c4.54,7.37,11.39,7.89,18.76,10.91,3.9,1.6,7.75,3.31,11.69,4.81,3.49,1.33,7.74,3.68,11.51,3.75s7.01-3.91,5.79-7.6l-.05-.15c-2.42-7.29-14.01-4.17-11.57,3.19l.05.15,5.79-7.6c-1.88-.03-5.44-2.23-7.44-2.99-3.27-1.24-6.49-2.56-9.7-3.94-4.3-1.85-11.85-2.38-14.45-6.6-4.04-6.57-14.42-.55-10.36,6.06h0Z"/>
            </g>
            <path class="cls-7" d="M205.45,414.5c7.72,0,7.73-12,0-12s-7.73,12,0,12h0Z"/>
            <path class="cls-7" d="M169.3,444.16c4.13,3.26,7.8,5.36,12.99,6.46,5.67,1.2,10.86,3.61,16.42,5.17,11.16,3.12,22.8,3.95,33.87,7.51,7.37,2.37,10.52-9.21,3.19-11.57-9.97-3.2-20.33-4.49-30.52-6.7-4.86-1.05-9.38-3.01-14.1-4.53s-9.34-1.63-13.37-4.81c-6-4.74-14.54,3.7-8.49,8.49h0Z"/>
          </g>
          <path class="cls-7" d="M239.23,465.02c11.7,4.07,24.55,3.41,36.67,5.49,6.19,1.06,12.36,2.3,18.58,3.17,6.65.93,13.36,1.05,20.01,1.88,7.64.96,7.57-11.05,0-12-6.21-.78-12.48-.8-18.69-1.72s-12.38-2.2-18.58-3.22c-11.5-1.89-23.73-1.32-34.81-5.17-7.31-2.54-10.45,9.05-3.19,11.57h0Z"/>
          <path class="cls-7" d="M319.1,475.43c5.62,2.42,11.65,2.86,17.66,3.71,7.19,1.03,14.38,2.05,21.64,2.53,7.71.51,7.68-11.5,0-12-6.19-.41-12.31-1.22-18.45-2.1-4.65-.66-10.44-.63-14.8-2.5-7.02-3.02-13.14,7.32-6.06,10.36h0Z"/>
        </g>
        <path class="cls-7" d="M609.9,428.02c7.72,0,7.73-12,0-12s-7.73,12,0,12h0Z"/>
      </g>
      <g>
        <path class="cls-2" d="M448.27,81.89l.63,1.08-.05,53.34c70.43,3.71,59.34-17.22,59.99,45.73,363.04,9.27,73.36,373.13-203.08,260.95-38.66,11.34-81.09,9.02-117.45-8.42-5.9-1.87-6.98-10.43-1.04-12.28,14.75-2.84,28.08-9.12,39.36-18.96-64.99-42.43-112.19-119.62-98.21-199.18-54.42-6.63-82.32-86.41-41.79-121.43,6.13.22,4.98,14.57,31.59,24.21,19.5,7.07,34.45,12.76,45.13,33.57,27.65-30.31,68.72-7.63,100.15-27.82,22.57-4.29-5.84,52.03-13.63,59.48l52.39.13c1.08-69.41-12.79-46.25,69.45-50.29v-39.06c0-2.44,2.81-5.42,5.49-5.42l65.92-.06c2.71,0,4.93,2.12,5.16,4.43ZM386.31,122.62c16.1.02,36.33-.09,52.45.11l-.06-35.05c-19.27.01-37.99.25-57.2.2l-.04,34.62,4.84.12ZM102.1,178.89c20.01,20.03,39.44,9.17,38.36,23.11-15.73,77.78,31.78,152.47,95.49,193.82,8.69-9.35,31.52-30.9,40.11-35.84,6.08-3.49,36.05-17.49,40.52-8.94.65,1.23-1.32,4.01-3.01,4.42-46.46,9.15-66.45,57.36-108.99,74.01,65.56,24.69,139.53-1.75,183.66-53.78,19.63,11.15-52.69,57.57-64.84,61.13,118.72,35.75,269.51,1.17,333.23-110.74-29.11-32.06-94.66,61.43-167.42,12.54-2.6.23-5.45.24-7.96.21-1.41-7.38,12.84-12.2,15.95-4.93,70.9,38.65,117.55-44.74,163.36-17.57,33.57-140.12-159.5-138.88-247.02-102.07-66.95,17.73-144.63,54.67-211.79,20.83-12.43-7.14-34.14-25.61-26.43-41.11,39.36,2.39,75.07-27.66,83.92-66.04-23.57,10.13-50.54.63-74.11,11.13-20.13,8.59-17.47,22.26-26.86,18.74-.08-.34-.61-.85-.94-.95-11.6-42.99-46.98-29.59-70.59-57.81-13.37,25.98-8.24,61.64,15.38,79.84ZM381.34,131.06l.11,36.02c17.48.46,38.93.59,56.65.03.27-.02.8-.86.8-1.13l-.22-36.22c-17.04-.82-38.27-.43-55.38-.2l-1.96,1.51ZM317.05,167.38c16.62.51,37.76-.29,54.49.06l-.14-35.24c-14.73.26-44.03-.11-58.99.01l.02,34.71,4.63.46ZM448.29,147.98l.34,27.62c15.48-.17,34.68-.23,50.16-.13l-.06-29.14c-10.24.28-38.82-.11-49.47-.16l-.97,1.81ZM317.04,212.01c17,.07,36.83-.26,54.52.02l-.13-38.08c-19.15.47-39.77-.1-58.97.83l-.09,35.79c0,1.48,3.4,2.01,4.67,1.45ZM404.19,205.17c11.31-3.12,22.57-6.81,34.59-9.49l-.11-21.73c-18.92.76-37.81.27-57.33.54l.16,37.47,22.7-6.79ZM205.96,224.63c11.4,6.42,23.07,10.48,35.89,11.6l.11-55.94c-16.06,14.72-34.38,22.59-55.19,24.82,5.06,8.96,11.25,14.61,19.19,19.52ZM453.17,191.11c70.19-10.88,49.86-11.53-4.57-9.86l-.06,11.16,4.63-1.3ZM256.33,213.67c8.4-.09,23.32-.13,31.83-.14,1.47-.39,16.97.8,14.2-1.55.08-5.24,0-13.68.02-19,.53-2.68,1.23-8.92-.28-11.03-9.23.51-36.2-.06-45.87.05-1.08,0-4.23-.11-4.24,1l-.17,29.94c.92.76,3.39.73,4.51.72ZM329.31,219.77c-4.22-1.97-11.25-.56-16.62-.94l.05,12.47c14.41-3.29,27.14-6.2,41.65-11.26-8.53-3.61-16.97-1.48-25.08-.27ZM267.08,219.95c-4.83-.49-10.62-1.55-15.06,1.03l-.1,16.42c17.61.53,33.63-1.17,50.68-3.95-.26-2.28,1.34-12.61-.58-13.43-10.7-.9-23.86-.8-34.95-.06Z"/>
        <path class="cls-6" d="M187.09,372.13c13.06,10.61,24.76,21.42,39.54,31.21-11.28,9.85-24.6,16.13-39.36,18.96-5.92,1.86-4.87,10.41,1.04,12.28,36.37,17.44,78.78,19.76,117.45,8.42,104.32,37.58,227.55,18.86,313.32-51.7l7.43,2.81c-2.19,8.85-4.38,17.82-11.7,24.46,9.92-3.16,24.06-8.52,25.97-18.85,34.82,12.24,30.59,26.68-.65,38.53-28.73,60.98-470.62,61.56-506.23,3.72-25.92-8.49-63.31-20.7-17.98-41.72,4.2,11.47,23.71,17.27,34.06,21.95,24.94,41.75,165.06,47.03,210.24,57.26-.22-.46-.9-2.44-1.39-2.5l-19.48-2.47c7.83-2.4,14.71,2.11,22.18-2.49-37.97-5.32-177.98-15.41-197.21-44.17-7.28-11.64-26-7.94-32.4-25.01l23.41-11.27c13.27,13.25,37.17,16.04,54.41,20.3-1.92-2.32-4.47-3.86-7.06-4.48-13.12-3.12-25.03-8.35-36.15-15.8-5.68-3.76,1.67-11.2,3.15-15.25,5.83-1.8,11.7-3.17,17.38-4.19ZM444.28,472.13c33.23-1.82,150.28-18.35,164.85-48.06,0,0,5.42-5.1,5.42-5.1-4.68,1.3-15.49,3.86-20.33,4.95-14.96,27.95-84.32,31.56-113.53,38.37,0,0-34.73,5.85-34.73,5.85-1.19.2-2.66,4.01-1.68,3.99Z"/>
        <path class="cls-5" d="M545.05,122.17c-17.25,12.79-41.88-6.65-34.07-26.52,16.85-32.97,61.86,2.66,34.07,26.52ZM543.09,100.57c1.01-7.82-7.77-13.57-14.47-9.13.84,4.32,13.17,14.99,14.47,9.13Z"/>
        <path class="cls-5" d="M497.11,29.68c27.17-8.72,40.26,32.89,12.71,41.02-25.61,7.74-39.71-32.02-12.71-41.02ZM513.49,43.86c-1.6-6.78-9.71-10.9-14.01-4.36l14.01,4.36Z"/>
        <path class="cls-5" d="M432.11,8.47c1.04-12.28,19.67-10.42,20.31.55.91,14.85-22.08,14.65-20.31-.55Z"/>
        <path class="cls-5" d="M450.8,42.49c.58,1.17-3.78,5.86-6.99,5.2-1.26-.26-3.06-1.83-4.74-3.12l-6.67-2.13c-6.61-6.25,3.79-12.4,6.01-2.58,4.12-7.58,10.09-3.87,12.39,2.62Z"/>
        <path class="cls-5" d="M491.63,114.42c-2.68,5.25-10.91,3.02-12.96-1.86-1.67-12.05,17.39-9.37,12.96,1.86Z"/>
        <path class="cls-6" d="M156.15,377.48c3.98,5.11-25.54,12.82-27.76,10.79,8.44-5.5,17.76-7.77,27.76-10.79Z"/>
        <path class="cls-5" d="M551.83,147.6c-5.72,2.73-10.17-6.02-4.35-9.06,5.91-2.09,8.99,6.31,4.35,9.06Z"/>
        <path class="cls-5" d="M473.83,73.52c.68,1.12,1.38,3.14,1.52,4.09.24,1.67-7.51,3.36-9.43.14-2.12-4.96,4.52-9.9,7.91-4.23Z"/>
        <path class="cls-5" d="M468.16,82.04l8.41-1.64c2.92,10.7-11.54,10.51-8.41,1.64Z"/>
        <path class="cls-5" d="M487.03,88.82c-5.45-5.67,3.16-8.77,6.34-4.67,1.49,4.79-2.36,7.51-6.34,4.67Z"/>
        <path class="cls-5" d="M455.06,37.56c-4.27-3.29-.24-7.53,3.72-5.38,2.66,3.21,1.47,7.3-3.72,5.38Z"/>
        <path class="cls-8" d="M448.91,82.98l-.63-1.08.63,1.08Z"/>
        <path class="cls-5" d="M87.99,101.27c1.5,14.15,17.93,21.93,30.27,26.45,30.43,11.13,32.06,27.09,39.05,29.15.34.1.86.61.94.95,2.01,8.46,12.59-4.97,23.15-9.73,29.45-15.05,47.24,1.52,69.48-17.02,2.06-1.36,4.79-2.46,8.35-3.13-6.17,26.06-23.61,47.87-47.15,58.33,5.77-13.19,26.95-19.29,29.77-34.11-13.35,10.98-25.49,20.22-40.92,24.62-15.55,2.58-16.34,6.7-30.77,10.76,2.53,2.69,4.12,4.28,5.15,6.44-3.06,4.04-2.17,8.31-.23,13.16,47.88,115.54,234.46,2.81,322.07-.51,65.68-11.76,167.15,20.31,147.78,103.6-51.28,2.76-84.42,55.92-147.74,23.67-3.11-7.27-17.36-2.46-15.95,4.93-39.51-1.03-58.98,23.71-88.96,43.04.05-2.91-1.18-5.53-4.05-6.18.3-2.15.43-5.25-1.93-6.13-20.24,19.14-46.96,40.66-73.21,48.49-.27-1.81-1.76-1.31-3.12-1.13-20.23,2.98-48.33,10.33-68.83,8.9,34.18-13.63,52.43-51.01,89.16-60.7,0,0,4.8.82,4.8.82,7.11-3.55,33.82-15.35,39.81-19.75,16.25-3,17.17-5.74,31.2-10.56-101.81,14.15-271.66-13.39-254.5-149.39-10.46-.48-9.05-5.58-20.96-9.51-23.8-7.85-36.75-32.04-43.7-55.13-1.04,10.77,1.03,21.04,4.03,31.21,5.51,18.67,15.46,21.05,11.12,26.09-23.63-18.21-28.75-53.86-15.38-79.84.6,1.12.95,1.9,1.27,2.21ZM243.96,150.98c.02-1.12-1.74-1.12-1.72,0-.02,1.12,1.74,1.12,1.72,0ZM626.7,251.57c-4.33-15.85-45.08-42.69-59.11-33.25,23.14,6.28,42.11,17.11,59.11,33.25ZM480.26,260.49c-6.41-12.17-24.49-4.25-30.09,3.16,16.97-3.84,12.04-4.1,30.09-3.16ZM464.95,320.79c36.38,5.62,36.74-50.2-.76-45.56-18.61-10.29-39.14,25.52-21.08,41.77-4.68,2.44-8.19,3.67-10.43,8.47,4.42.43,30.77,2.83,31.53-.94l.75-3.75Z"/>
        <path class="cls-7" d="M632.11,360.93c-21.26,11.92-38.96,30.97-62.39,40.13,6.06-6.69,28.41-21.72,28.44-31.55-31.42,30.97-73.3,52.43-117.42,58.44,25.12-12.25,53.94-24.05,68.51-49.44-45.17,35.52-101.66,48.04-158.01,47.34,39.29-5.53,79-16.64,106.8-45.86-35.34,16.85-75.36,36.15-116.31,35.12,5.2-5.37,8.84-9.71,13.4-15.48,19.17-2.49,54.27-12,67.05-27.61-17.58,6.86-43.92,19.99-63.49,18.35,2.03-8.41,6.25-10.83,7.65-17.4,22.26-21.97,51.34-36.32,82.87-34.36,73.15,48.9,137.87-44.59,167.42-12.54-4.77,14.31-15.49,24.25-24.52,34.86ZM499.96,378.98c.02-1.12-1.74-1.12-1.72,0-.02,1.12,1.74,1.12,1.72,0Z"/>
        <path class="cls-8" d="M313.1,418.05c-18.78,7.7-47.8,14.47-67,14.84-3.79.38-17.41-1.25-20.06,2.35-7.1-1.25-14.38-2.54-21.47-5.78,42.53-16.65,62.54-64.86,108.99-74.01,1.69-.41,3.66-3.19,3.01-4.42-4.47-8.55-34.44,5.45-40.52,8.94-73.38-12.61-159.16-73.73-135.6-157.97.99-14.03-18.29-3.02-38.36-23.11,4.34-5.04-5.61-7.43-11.12-26.09-3-10.17-5.07-20.44-4.03-31.21,6.96,23.09,19.9,47.28,43.7,55.13,11.92,3.93,10.51,9.03,20.96,9.51-17.31,105.96,105.69,158.3,194.45,151.64,0,0,60.06-2.25,60.06-2.25-14.02,4.81-14.95,7.55-31.2,10.56-5.85,4.33-32.88,16.29-39.81,19.75-39.26,1.86-58.61,47.47-93.95,59.89,20.38,1.45,48.7-5.93,68.83-8.9,1.34-.17,2.88-.68,3.12,1.13Z"/>
        <path class="cls-6" d="M644.94,310.24c19.31-83.34-82.06-115.34-147.78-103.6-87.46,3.28-274.28,116.06-322.08.51,47.71,79.25,169.24,25.55,238.44,7.11,87.46-36.83,280.7-38,247.03,102.08-5.29-2.92-10.39-5.77-15.61-6.1Z"/>
        <path class="cls-6" d="M199.17,330.16c-1.4,14.88,33.32,33.26,45.57,38.39l16.23-11.54c4.63,1.51,10.71.36,15.09,2.96-8.59,4.94-31.42,26.49-40.11,35.84-45.69-30.57-82.01-73.54-94.05-127.84,14.11,24.7,34.11,46,57.28,62.18ZM240.62,373.01l-23.71-11.27,12.36,10.16c2.93,5.3,7.38,5.21,11.35,1.1Z"/>
        <path class="cls-6" d="M388.24,375.69c-31.99,37.16-86.97,67.82-137.13,62.49,1.69-.12,4.09-1.15,7.57-1.93l-4.56-3.88c35.66-3.94,75.94-16.35,105.24-39.37,0,0,26.95-23.44,26.95-23.44,2.36.87,2.23,3.98,1.93,6.13Z"/>
        <path class="cls-5" d="M483.12,146.43l-.76,28.95-17.05.07c-.41-7.9,2.68-21.03-2.29-27.94l-.96,27.98-13.43.1-.34-27.62.97-1.81,33.86.26Z"/>
        <path class="cls-5" d="M397.91,129.23c.22,2.11,1.15,2.11,1.41.01l21.67.24c-1.18,6.02-.07,31.44.07,37.97l-19.92-.02c-.18-3.12.75-28.72,1.02-30.88,0,0-3.23-3.65-3.23-3.65l-2.07,3.83-10.3-.49c-.72-4.69-.08-7.03-5.21-5.18l1.96-1.51,14.61-.33Z"/>
        <path class="cls-8" d="M212.08,186.28c-11.46,5.1-23.51,9.63-36.77,7.7-1.03-2.16-2.62-3.75-5.15-6.44,14.43-4.05,15.22-8.18,30.77-10.76,15.44-4.4,27.57-13.64,40.92-24.62-2.83,14.83-24.01,20.92-29.77,34.11Z"/>
        <path class="cls-8" d="M317.17,174.89c.21,1.65.65,4.98.88,6.63l9.68.12c.84.01,1.69-3.14,1.47-3.39l1.02-4.05,2.88.12.5,7.51,18.42-.62c1.09-2.19.51-5.76-.92-7.05l5.92.03v37.71s-4.6,0-4.6,0l.29-27.24-19.13-.53-.41,27.77c-1.65-.07-2.92-.03-3.77,0l.14-27.11c-4.88-.33-8.71-.27-12.52.4l.02,26.81c-1.27.56-4.68.03-4.67-1.45l.09-35.79c1.81-.31,3.6-.2,4.71.12Z"/>
        <path class="cls-8" d="M317,132.21l.54,5.84c16.61.54,6.89-1.97,16.27-.78,6,.76,11.71.66,18.39.71l.09-5.77,3.65.2.93,5.9c4.29-.02,6.92-.64,11.21.85l-11.37,1.39.18,26.83-4.01.02-.45-26.74-18.7.41-.63,26.32c-1.53,0-3.24.32-4.04.4l.3-27.17-12.21.12-.11,26.63-4.63-.46-.02-34.71h4.6Z"/>
        <path class="cls-8" d="M270.85,219.51l.21,6.11,16.52.37.49-6.12,3.91-.34.41,6.09,10.48.55-.25,7.29c-17.05,2.78-33.07,4.48-50.68,3.95l.1-16.42c5.3.26,4.48-1,5.33,4.5l9.56.54.17-6.07,3.77-.45Z"/>
        <path class="cls-6" d="M157.31,156.87c-6.99-2.06-8.62-18.02-39.05-29.15-12.34-4.52-28.77-12.3-30.27-26.45,25.65,25.2,57.37,13.85,69.32,55.6Z"/>
        <path class="cls-6" d="M250.88,131.08c-22.26,18.54-40.01,1.96-69.48,17.02-10.56,4.75-21.14,18.18-23.15,9.72,4.22,1.59,6.01-.31,8.53-3.66,22.32-30.25,58.83-16.43,84.1-23.08Z"/>
        <path class="cls-5" d="M438.9,165.98l-.8,1.13c-3.28.21-10.62.24-13.91.3l.56-27.98,11.4-1.28c-4.47-1.26-6.72-1.16-11.32-1.58v-7.11c4.47-.22,8.99-.35,13.85.3l.22,36.22Z"/>
        <path class="cls-8" d="M385.92,174.48l.32,7.17,11.1.14c2.98-5.23,2.6-1.78,5.41-.05,0,0,17.28.33,17.28.33l.33-7.62c1.7.04,2.98-.02,3.97-.05l-.15,24.65-3.83.97.11-16.3-18.99.39.35,20.88,2.38.17-22.7,6.79-.16-37.47h4.59ZM397.64,203.29l-.23-19.61-11.11,1,.5,19.93,10.83-1.32Z"/>
        <path class="cls-5" d="M424.26,122.61l-.08-34.71c3.55-.27,10.4-.38,14.52-.23l.06,35.05-14.5-.11Z"/>
        <polygon class="cls-5" points="357.04 211.89 357.02 174.18 371.43 173.95 371.56 212.03 357.04 211.89"/>
        <polygon class="cls-5" points="420.31 122.57 401.27 122.65 401.52 94.97 420.55 95.63 420.31 122.57"/>
        <path class="cls-8" d="M386.19,87.94l-.09,5.37,11.43-.09,1.42-4.84c1.64,3.1,2.45,5.45,4.87,5.49l16.13.26c.72-1.82,1.25-4.5,1.31-6.12,1.08.08,2.37-.06,2.92-.1l.08,34.71-3.95-.04.24-26.94-19.03-.66-.26,27.68-3.99-.05.26-26.59-11.67.25.44,26.36-4.84-.12.04-34.62,4.69.06Z"/>
        <path class="cls-5" d="M352.42,211.89c-7.08,0-13.18.26-19.25,0l.41-27.77,19.13.53-.29,27.24Z"/>
        <polygon class="cls-5" points="352.88 167.39 333.11 167.39 333.74 141.07 352.44 140.66 352.88 167.39"/>
        <path class="cls-5" d="M356.89,167.38l-.18-26.83,11.37-1.39c-4.29-1.49-6.92-.88-11.21-.85l-.93-5.9,15.46-.21.14,35.24-14.65-.06Z"/>
        <path class="cls-8" d="M256.23,182l.5,5.46c3.26.23,9.36,2.53,10.95-2.06,4.52,3.85,14.53,2.69,20.33,2.48l.15-5.77c.78,0,2.34.25,3.13.22l.61,5.62,8.42.49-8.51.9.12,24.13-3.75.06-.34-24.69c-6.08.81-10.25.95-16.39.69l-.39,24.04-3.73.02-.14-24.18-10.61.8-.24,23.47c-1.13,0-3.59.04-4.51-.72l.17-29.94c0-1.11,3.16-1.01,4.24-1Z"/>
        <path class="cls-5" d="M288.16,213.53l-17.12.04.39-24.04c6.14.25,10.31.12,16.39-.69l.34,24.69Z"/>
        <path class="cls-5" d="M485.99,175.44c.18-9.66.43-19.41-.7-28.94l13.45-.17.06,29.14-12.81-.03Z"/>
        <path class="cls-8" d="M401.14,167.44c-1.05,0-3.28-.23-3.75-.29l.19-27.46-11.27.25-.28,27.36-4.58-.22-.11-36.02c5.14-1.85,4.49.5,5.21,5.18l10.3.49,2.07-3.83,3.23,3.65c-.26,2.04-1.2,27.89-1.02,30.88Z"/>
        <path class="cls-5" d="M424.18,199.05l.15-24.65,14.34-.45.11,21.73c-5.2,1.53-9.87,2.73-14.6,3.37Z"/>
        <path class="cls-5" d="M420.34,200.03c-6.35,2.46-12.22,5.21-18.53,4.97l-.35-20.88,18.99-.39-.11,16.3Z"/>
        <polygon class="cls-5" points="329.08 167.79 317.05 167.38 317.17 140.75 329.37 140.62 329.08 167.79"/>
        <path class="cls-5" d="M329.4,211.91c-4.76.19-8.57.22-12.36.1l-.02-26.81c3.81-.67,7.64-.73,12.52-.4l-.14,27.11Z"/>
        <path class="cls-5" d="M302.1,181.95c.03,3.12.93,6.08.72,9.03-1.3,6.12.28,15.89-.72,22.15-2.54.32-7.39.3-10.19.34l-.12-24.13,8.51-.9-8.42-.49-.61-5.62,10.82-.38Z"/>
        <path class="cls-5" d="M397.38,167.15c-4.04.17-8.19.29-11.35.14l.28-27.36,11.27-.25-.19,27.46Z"/>
        <polygon class="cls-5" points="397.27 122.6 386.31 122.62 385.87 96.26 397.54 96.01 397.27 122.6"/>
        <polygon class="cls-5" points="267.32 213.58 256.33 213.67 256.57 190.2 267.17 189.4 267.32 213.58"/>
        <path class="cls-5" d="M420.36,174.45l-.33,7.62-17.28-.33c-2.8-1.73-2.44-5.17-5.41.05l-11.1-.14-.32-7.17c12.14-.04,23.29-.3,34.44-.03Z"/>
        <path class="cls-8" d="M316.97,218.85c-.07,1.63.47,4.62,1.34,5.56l11.03.45-.04-5.1c8.11-1.21,16.55-3.34,25.08.27-14.51,5.06-27.24,7.97-41.65,11.26l-.05-12.47,4.28.03Z"/>
        <path class="cls-5" d="M352.29,132.21l-.09,5.77c-6.68-.05-12.38.05-18.39-.71-9.39-1.19.34,1.32-16.27.78l-.54-5.84h35.29Z"/>
        <path class="cls-5" d="M421.26,88c-.06,1.63-.59,4.31-1.31,6.12l-16.13-.26c-2.43-.04-3.23-2.39-4.87-5.49l-1.42,4.84-11.43.09.09-5.37c11.67.16,23.46-.77,35.07.07Z"/>
        <path class="cls-5" d="M288.15,182.1l-.15,5.77c-5.81.21-15.79,1.38-20.33-2.48-1.57,4.59-7.71,2.29-10.95,2.06l-.5-5.46,31.92.1Z"/>
        <path class="cls-5" d="M466.05,188.93l-.14-8.08c1.38.71,34.34-2.27,33.14,1.61.92,1.26-32.35,6.06-33,6.47Z"/>
        <path class="cls-8" d="M424.83,129.46v7.11c4.6.42,6.85.32,11.32,1.58l-11.4,1.28-.56,27.98-3.14.05c-.14-6.68-1.26-31.82-.07-37.97,1.78.02,2.95.02,3.85-.03Z"/>
        <path class="cls-5" d="M351.1,174.14c1.42,1.29,2,4.86.92,7.05l-18.42.62-.5-7.51,18.01-.17Z"/>
        <path class="cls-5" d="M254.12,432.37l4.56,3.88c-10.57,3.99-21.76.65-32.63-1,2.63-3.61,16.27-1.97,20.06-2.35,2.36.91,4.61,2.61,6.18-.63.5.04,1.37.12,1.83.1Z"/>
        <path class="cls-5" d="M288.07,219.86l-.49,6.12-16.52-.37-.21-6.11c5.73-.2,11.55-.12,17.22.35Z"/>
        <path class="cls-8" d="M485.29,146.5c1.13,9.53.88,19.28.7,28.94l-3.62-.06.76-28.95,2.16.07Z"/>
        <path class="cls-5" d="M462.01,180.94l.03,8.75c-3.51.66-6.19,1.12-8.86,1.43l-1.97-9.92,10.81-.25Z"/>
        <path class="cls-8" d="M465.31,175.46l-3.25.04.96-27.98c4.96,6.86,1.88,20.09,2.29,27.94Z"/>
        <path class="cls-5" d="M329.31,219.77l.04,5.1-11.03-.45c-.87-.95-1.42-3.94-1.34-5.56,4.78.04,8.96-.73,12.34.91Z"/>
        <path class="cls-5" d="M302.04,220.01c.33,1.36,1.1,4.76.82,6.14l-10.48-.55-.41-6.09c3.46-.3,7.85-.13,10.06.49Z"/>
        <path class="cls-5" d="M267.08,219.95l-.17,6.07-9.56-.54c-.84-5.51-.05-4.24-5.33-4.5,4.44-2.58,10.23-1.52,15.06-1.03Z"/>
        <polygon class="cls-8" points="451.2 181.19 453.17 191.11 448.54 192.41 448.6 181.25 451.2 181.19"/>
        <path class="cls-5" d="M330.22,174.19l-1.02,4.05-11.6-.05-.43-3.3c4.87-.59,9-.88,13.05-.7Z"/>
        <polygon class="cls-8" points="465.91 180.85 466.05 188.93 462.03 189.69 462.01 180.94 465.91 180.85"/>
        <path class="cls-8" d="M302.83,187.98c-.42-1.67-.65-4.02-.72-6.03,1.23,1.03.73,4.1.72,6.03Z"/>
        <path class="cls-8" d="M302.91,224.07l-.87-4.06c.99.28,1.07,3.13.87,4.06Z"/>
        <path class="cls-8" d="M302.38,206.98v-4c.05,1.18.2,2.83,0,4Z"/>
        <path class="cls-8" d="M448.29,147.98l.97-1.81-.97,1.81Z"/>
        <path class="cls-8" d="M302.38,192.98c0-.55.31-1.8.44-2,0,.55-.32,1.79-.44,2Z"/>
        <path class="cls-8" d="M397.91,129.23h1.41c-.26,2.12-1.19,2.1-1.41,0Z"/>
        <path class="cls-8" d="M438.1,167.1l.8-1.13c0,.27-.53,1.11-.8,1.13Z"/>
        <path class="cls-8" d="M302.1,213.13l.26-1.15c.97.47.31.93-.26,1.15Z"/>
        <path class="cls-7" d="M543.09,100.57c-1.31,5.86-13.64-4.81-14.47-9.13,6.7-4.44,15.48,1.31,14.47,9.13Z"/>
        <path class="cls-7" d="M513.49,43.86l-14.01-4.36c4.3-6.53,12.41-2.43,14.01,4.36Z"/>
        <path class="cls-2" d="M464.95,320.79c-23.82-5.45-23.75-39.24-.76-45.56,37.53-4.63,37.12,51.19.76,45.56ZM485.18,295.49c1.63-9.42-12.21-16.85-16.18-7-3.25,9.77,12.2,18.67,16.18,7ZM464.88,314.81c6.23,1.9,9.56-5.32,5.76-8.74-6.85-4.22-16.49,5.73-5.76,8.74Z"/>
        <path class="cls-8" d="M464.19,275.23c-22.99,6.32-23.05,40.11.76,45.56l-.75,3.75c-.75,3.77-27.11,1.36-31.53.94,2.24-4.8,5.75-6.03,10.43-8.47-18.07-16.26,2.48-52.06,21.08-41.77Z"/>
        <path class="cls-7" d="M626.7,251.57c-17-16.14-35.97-26.97-59.11-33.25,13.59-9.59,55.07,17.56,59.11,33.25Z"/>
        <path class="cls-1" d="M480.26,260.49c-18.05-.94-13.12-.67-30.09,3.16,5.6-7.42,23.68-15.34,30.09-3.16Z"/>
        <path class="cls-6" d="M632.11,360.93c-75.85,84.01-201.49,107.9-308.72,75.88,26.94-13.11,53.26-29.57,68.9-54.95l14.04-8.9c-1.4,6.57-5.61,8.99-7.65,17.4,19.58,1.64,45.9-11.49,63.49-18.35-12.83,15.62-47.85,25.1-67.05,27.61-4.56,5.77-8.19,10.11-13.4,15.48,40.98,1.02,80.95-18.26,116.31-35.12-27.82,29.23-67.5,40.33-106.8,45.86,56.37.69,112.81-11.81,158.01-47.34-14.56,25.38-43.4,37.19-68.51,49.44,44.12-6.01,85.98-27.45,117.42-58.44-.02,9.83-22.38,24.86-28.44,31.55,23.43-9.15,41.13-28.2,62.39-40.13ZM479.74,428.48c.01-.82-1.28-.82-1.27,0-.01.82,1.28.82,1.27,0Z"/>
        <path class="cls-8" d="M243.96,150.98c.02,1.12-1.74,1.12-1.72,0-.02-1.12,1.74-1.12,1.72,0Z"/>
        <path class="cls-6" d="M499.96,378.98c.02,1.12-1.74,1.12-1.72,0-.02-1.12,1.74-1.12,1.72,0Z"/>
        <path class="cls-7" d="M260.97,357.02l-16.23,11.54c-12.24-5.13-46.96-23.51-45.57-38.39,18.7,11.63,40.77,20.71,61.8,26.86Z"/>
        <path class="cls-6" d="M252.29,432.26c-1.58,3.24-3.81,1.54-6.18.63l6.18-.63Z"/>
        <path class="cls-7" d="M479.74,428.48c.01.82-1.28.82-1.27,0-.01-.82,1.28-.82,1.27,0Z"/>
        <path class="cls-7" d="M240.62,373.01c-3.98,4.11-8.41,4.19-11.35-1.11,0,0-12.36-10.16-12.36-10.16l23.71,11.27Z"/>
        <path class="cls-6" d="M329.2,178.24c.22.25-.63,3.41-1.47,3.39l-9.68-.12-.45-3.33,11.6.05Z"/>
        <polygon class="cls-5" points="397.64 203.29 386.81 204.62 386.31 184.69 397.41 183.69 397.64 203.29"/>
        <path class="cls-7" d="M485.18,295.49c-3.98,11.67-19.43,2.77-16.18-7,3.97-9.85,17.81-2.42,16.18,7Z"/>
        <path class="cls-7" d="M464.88,314.81c-10.73-3.01-1.08-12.96,5.76-8.74,3.79,3.42.47,10.64-5.76,8.74Z"/>
      </g>
    </g>
  </g>
</svg>